<?xml version="1.0" standalone="no"?>
<!DOCTYPE svg PUBLIC "-//W3C//DTD SVG 20010904//EN"
 "http://www.w3.org/TR/2001/REC-SVG-20010904/DTD/svg10.dtd">
<svg version="1.0" xmlns="http://www.w3.org/2000/svg"
 width="3413.000000pt" height="921.000000pt" viewBox="0 0 3413.000000 921.000000"
 preserveAspectRatio="xMidYMid meet">

<g transform="translate(0.000000,921.000000) scale(0.100000,-0.100000)"
fill="#000000" stroke="none">
<path d="M17270 9130 c-66 -22 -130 -87 -148 -148 -12 -41 -11 -204 14 -1277
l7 -290 -74 66 c-41 36 -117 101 -169 144 -52 44 -97 82 -100 85 -27 31 -450
348 -597 448 -170 115 -107 106 -728 105 -541 -2 -994 -14 -1180 -33 -55 -5
-199 -17 -320 -25 -121 -8 -348 -28 -505 -45 -157 -17 -355 -37 -440 -45 -160
-14 -502 -59 -574 -74 -23 -5 -70 -12 -106 -16 -36 -4 -105 -13 -155 -21 -82
-12 -92 -17 -117 -46 -47 -58 -68 -113 -78 -205 -23 -213 -50 -623 -65 -983
-5 -108 -15 -301 -35 -685 -1 -5 -18 37 -39 95 -21 58 -62 166 -91 240 -29 74
-59 153 -67 175 -25 69 -146 343 -229 521 -35 75 -109 166 -153 188 -59 30
-173 45 -406 56 -132 6 -260 15 -285 20 -58 12 -1071 12 -1170 0 -41 -5 -212
-14 -380 -20 -168 -6 -352 -17 -410 -25 -58 -7 -143 -14 -189 -15 -128 -2
-289 -16 -576 -49 -143 -16 -294 -32 -335 -36 -84 -7 -199 -22 -435 -59 -88
-14 -207 -30 -264 -36 -120 -13 -156 -28 -223 -95 -61 -62 -106 -149 -159
-312 -24 -73 -46 -133 -50 -133 -3 0 -31 75 -62 168 -123 367 -217 616 -355
937 -35 83 -75 176 -88 207 -48 115 -185 392 -210 425 -14 18 -43 42 -64 53
-38 19 -48 20 -222 10 -101 -6 -250 -15 -333 -21 -82 -6 -206 -14 -275 -19
-69 -5 -222 -20 -340 -33 -118 -14 -269 -28 -335 -32 -66 -3 -255 -24 -420
-45 -165 -22 -361 -46 -435 -55 -275 -31 -760 -95 -900 -120 -80 -14 -208 -34
-285 -45 -77 -11 -201 -31 -275 -45 -74 -13 -196 -34 -270 -45 -74 -11 -202
-34 -285 -50 -82 -16 -181 -34 -220 -40 -203 -30 -800 -154 -855 -177 -49 -20
-75 -47 -101 -106 -28 -65 -29 9 6 -1327 18 -689 29 -968 70 -1805 13 -279 18
-376 30 -690 7 -172 12 -264 45 -800 16 -264 32 -547 35 -630 7 -165 51 -860
60 -940 8 -69 44 -135 91 -168 34 -24 68 -32 246 -62 113 -19 261 -42 329 -50
68 -8 221 -28 339 -44 118 -17 278 -35 355 -41 196 -16 443 -38 550 -49 50 -5
177 -12 283 -16 l192 -6 11 28 c24 58 22 116 -4 193 -33 95 -97 302 -245 790
-124 408 -280 958 -447 1575 -25 94 -59 218 -75 277 -17 59 -30 109 -30 112 0
3 36 6 80 6 l80 0 124 -252 c68 -139 281 -568 472 -953 380 -763 525 -1061
674 -1385 148 -323 176 -364 276 -415 l59 -30 584 -3 c353 -2 633 1 705 8 67
6 240 15 386 20 330 11 372 14 705 50 149 17 295 32 325 35 219 20 441 48 528
66 88 19 106 26 127 51 28 33 34 107 12 143 -11 20 -211 211 -557 535 -85 80
-162 153 -170 162 -29 32 -941 860 -1279 1162 -213 189 -596 527 -753 663 -71
62 -151 132 -178 157 l-50 44 82 6 c102 7 414 23 608 31 153 6 791 41 898 49
34 3 62 2 62 -2 0 -4 -4 -23 -10 -42 -5 -19 -12 -48 -14 -65 -11 -63 -26 -135
-55 -265 -16 -74 -40 -198 -52 -274 -34 -211 -20 -259 127 -420 337 -368 839
-845 1234 -1171 58 -47 137 -113 176 -145 109 -91 318 -228 356 -234 18 -3
173 -8 343 -11 171 -3 375 -9 455 -15 192 -12 1454 -12 1550 0 41 6 332 13
645 16 635 7 578 0 698 87 174 124 370 303 538 489 l79 88 0 -213 c0 -277 11
-335 74 -393 55 -50 73 -54 291 -64 94 -4 289 -14 435 -21 190 -9 703 -13
1815 -13 1550 0 1821 4 2381 38 198 12 216 15 256 39 94 55 143 130 319 480
54 110 99 195 99 190 0 -4 9 -82 19 -173 11 -91 22 -194 25 -230 35 -393 48
-451 121 -525 l38 -37 166 4 c129 4 193 11 284 32 65 14 200 37 300 51 100 13
256 38 347 54 91 16 190 32 220 36 30 3 69 9 85 11 335 55 454 75 520 84 44 7
150 25 235 41 85 17 202 37 259 45 57 8 183 30 280 49 307 59 397 75 427 75
23 0 45 -17 114 -89 47 -49 101 -97 120 -107 29 -15 72 -19 270 -25 129 -4
305 -14 390 -21 219 -18 2524 -18 2820 0 113 7 288 15 390 18 102 2 206 9 232
15 115 26 207 163 318 469 21 58 43 117 49 133 l11 27 67 -43 c421 -269 896
-508 1410 -711 79 -31 147 -56 152 -56 5 0 51 -16 103 -36 51 -20 134 -42 183
-50 l90 -15 61 66 c33 36 76 95 95 133 129 249 305 556 462 807 221 352 384
588 402 581 7 -2 127 -89 266 -193 140 -104 283 -210 319 -236 70 -50 327
-237 400 -291 73 -53 520 -369 580 -409 30 -21 93 -64 140 -97 148 -105 451
-309 748 -504 217 -142 310 -198 384 -227 l97 -39 92 40 c86 37 156 77 269
153 711 478 1428 1099 2056 1782 209 226 214 233 214 295 0 79 -16 89 -320
195 -69 24 -204 73 -300 110 -96 37 -188 71 -205 77 -16 5 -79 29 -140 53 -60
23 -155 60 -210 80 -55 21 -152 59 -215 86 -63 26 -178 73 -255 104 -77 32
-212 89 -300 127 -88 39 -181 78 -207 88 -194 74 -1091 511 -1398 682 -74 41
-171 94 -215 118 -44 23 -84 46 -88 50 -8 7 170 211 197 227 8 4 92 82 188
173 444 424 888 805 1293 1109 83 61 166 124 185 139 43 34 293 210 450 317
92 62 405 261 585 372 36 22 64 75 65 122 0 64 -86 121 -435 284 -481 225
-767 333 -1340 507 -91 27 -441 114 -705 175 -206 47 -369 58 -451 30 -39 -14
-128 -80 -375 -280 -94 -77 -390 -330 -524 -449 -316 -281 -436 -393 -854
-791 -109 -104 -242 -231 -295 -282 l-96 -91 -167 170 c-158 159 -302 319
-519 572 -120 139 -138 149 -247 142 -46 -4 -104 -11 -130 -17 -110 -24 -539
-161 -707 -225 -60 -23 -171 -65 -245 -94 -74 -28 -157 -60 -184 -71 -26 -12
-52 -17 -56 -12 -4 4 -26 63 -48 131 -87 254 -176 440 -308 637 -94 142 -245
316 -308 355 -65 40 -173 69 -299 80 -67 6 -210 24 -317 40 -107 16 -231 31
-275 35 -703 54 -1923 59 -2525 10 -221 -18 -306 -27 -635 -66 -486 -57 -473
-50 -649 -347 -67 -113 -217 -406 -231 -452 -4 -13 -22 -56 -40 -95 -17 -38
-36 -83 -42 -100 -7 -16 -31 -84 -56 -150 -67 -181 -126 -365 -142 -442 -18
-82 -20 -594 -5 -1128 15 -549 28 -760 70 -1160 11 -99 24 -229 30 -290 6 -60
33 -242 61 -403 27 -161 49 -300 49 -308 0 -12 -45 -14 -301 -14 l-301 0 6
112 c8 134 53 995 61 1153 20 425 28 559 50 874 14 196 30 435 35 531 16 294
19 340 55 790 18 239 37 487 40 550 6 122 23 326 55 685 43 474 65 828 56 879
-9 46 -66 104 -132 133 -31 13 -92 26 -164 33 -63 7 -218 30 -345 50 -126 21
-259 41 -295 45 -100 9 -375 44 -470 60 -85 14 -150 20 -335 31 -55 3 -103 8
-106 10 -4 2 -148 11 -321 19 -172 8 -342 20 -378 25 -89 13 -107 12 -170 -10z
m795 -436 c127 -8 296 -19 378 -24 267 -17 1012 -98 1080 -116 22 -7 22 -66 3
-311 -8 -98 -17 -221 -20 -273 -4 -52 -17 -255 -31 -450 -13 -195 -31 -485
-40 -645 -9 -159 -22 -400 -30 -535 -24 -413 -66 -1263 -79 -1630 -3 -69 -14
-343 -26 -610 -34 -811 -49 -1263 -44 -1272 3 -4 439 -8 970 -8 l965 0 -6 -67
c-17 -190 -69 -575 -80 -591 -2 -3 -554 -108 -615 -117 -25 -4 -90 -15 -145
-25 -55 -11 -118 -22 -140 -25 -41 -6 -110 -17 -375 -59 -85 -14 -173 -27
-195 -30 -74 -11 -439 -65 -575 -86 -74 -11 -198 -30 -275 -41 -77 -10 -162
-24 -190 -29 -27 -5 -68 -12 -90 -15 -73 -10 -288 -45 -407 -66 -64 -12 -122
-18 -127 -14 -6 3 -11 23 -11 43 0 20 -9 105 -20 187 -11 83 -22 168 -24 190
-3 22 -12 101 -21 175 -46 395 -65 584 -65 637 0 72 27 178 84 332 50 135 138
407 162 501 9 36 17 103 17 150 1 144 -51 228 -200 323 -39 25 -94 57 -122 71
-27 14 -52 30 -56 36 -6 10 -9 48 -44 570 -20 302 -25 400 -37 715 l-7 180 63
180 c140 401 184 589 160 683 -16 65 -42 103 -138 206 -46 49 -95 112 -109
140 -31 61 -27 -30 -38 974 l-8 773 139 -6 c76 -3 243 -12 369 -21z m-12551
-824 c112 -260 256 -611 256 -624 0 -4 10 -28 21 -54 30 -64 181 -486 225
-627 14 -44 37 -114 51 -155 22 -65 50 -157 107 -350 66 -224 198 -738 226
-882 l14 -67 -33 -53 c-38 -61 -49 -75 -175 -223 -52 -60 -152 -167 -223 -236
l-128 -126 -145 -12 c-80 -6 -239 -18 -355 -26 -115 -8 -284 -22 -375 -30
-189 -18 -193 -18 -560 -39 -151 -9 -354 -24 -450 -32 -96 -9 -274 -18 -395
-20 -121 -3 -239 -7 -262 -10 -40 -5 -43 -8 -43 -35 0 -16 4 -29 8 -29 4 0 26
-17 48 -38 21 -21 111 -103 199 -182 88 -79 194 -176 235 -215 41 -40 140
-132 220 -206 240 -222 478 -446 605 -568 722 -698 1616 -1584 1608 -1591 -17
-16 -184 -32 -578 -57 -358 -22 -487 -26 -1019 -27 l-610 -1 -50 86 c-130 220
-163 277 -271 469 -48 85 -102 180 -120 210 -18 30 -51 89 -73 130 -22 41 -59
109 -82 150 -47 84 -138 248 -180 325 -15 28 -47 86 -72 130 -77 138 -160 288
-188 340 -26 49 -64 117 -170 305 -133 236 -184 326 -292 508 -43 72 -78 134
-78 137 0 2 -14 24 -31 49 l-30 46 -112 0 c-62 0 -193 -7 -292 -14 -99 -8
-225 -14 -280 -15 -55 -1 -101 -3 -102 -5 -4 -4 107 -551 142 -701 8 -33 26
-112 40 -175 92 -404 297 -1217 449 -1772 l35 -128 -88 0 c-75 0 -224 12 -446
35 -61 7 -514 70 -640 89 -11 2 -60 9 -110 16 -49 7 -94 16 -98 20 -4 4 -14
83 -22 176 -26 300 -55 657 -60 734 -3 41 -14 197 -25 345 -58 788 -135 2118
-160 2760 -5 132 -16 409 -24 615 -27 668 -37 1053 -29 1061 5 5 71 20 148 34
77 15 199 37 270 50 214 40 1052 179 1210 201 22 3 78 11 125 19 47 8 110 17
140 20 30 4 109 15 176 25 67 11 143 22 170 25 27 3 96 12 154 20 147 20 467
63 515 69 212 25 699 79 820 91 22 2 108 11 190 19 465 48 768 71 928 71 l118
0 23 -55z m25161 -93 c452 -99 900 -230 1444 -423 300 -107 301 -109 139 -218
-62 -43 -147 -102 -188 -132 -41 -30 -91 -65 -110 -78 -19 -14 -60 -44 -91
-68 -31 -23 -117 -90 -193 -148 -355 -272 -672 -541 -1046 -889 -135 -125
-615 -604 -744 -741 -44 -47 -110 -116 -146 -155 -107 -113 -213 -235 -209
-238 2 -2 38 -25 79 -52 41 -26 98 -63 125 -81 140 -91 388 -233 730 -420 82
-45 813 -410 940 -469 39 -19 122 -57 185 -85 63 -29 158 -72 210 -95 52 -24
149 -66 215 -95 66 -28 149 -64 185 -80 36 -16 121 -52 190 -81 69 -28 166
-68 215 -89 150 -63 526 -210 603 -237 28 -10 52 -22 52 -27 0 -12 -80 -105
-155 -181 -144 -144 -613 -565 -860 -770 -27 -22 -82 -68 -124 -103 -67 -56
-153 -124 -255 -202 -18 -14 -68 -52 -110 -85 -164 -126 -274 -205 -288 -205
-6 0 -762 503 -983 655 -55 37 -156 106 -225 153 -69 47 -199 137 -290 201
-91 63 -190 132 -220 153 -215 149 -475 338 -785 569 -99 74 -190 141 -201
149 -12 8 -79 59 -149 112 l-127 98 -22 -27 c-11 -15 -32 -44 -46 -65 -14 -20
-73 -104 -131 -185 -149 -207 -358 -518 -479 -713 -153 -246 -173 -279 -217
-355 -23 -38 -60 -104 -84 -145 -24 -41 -57 -102 -75 -134 -17 -33 -37 -64
-45 -69 -16 -10 -59 5 -344 118 -436 172 -842 388 -1281 682 -77 51 -156 106
-174 121 l-33 28 64 83 c35 46 73 96 84 111 79 109 526 665 639 796 39 45 139
162 221 260 137 162 271 317 442 510 l64 72 -83 68 c-46 38 -112 94 -148 125
-36 31 -76 65 -89 75 -13 10 -43 35 -65 55 -23 19 -97 82 -166 139 -123 102
-156 130 -315 267 -44 38 -94 80 -111 93 -45 36 -300 255 -359 309 -28 25 -82
73 -120 106 -38 33 -81 71 -96 85 -15 14 -53 48 -85 75 -106 92 -114 100 -120
133 l-7 32 189 91 c104 51 221 105 259 121 215 92 337 142 395 163 36 13 90
33 120 45 131 54 724 247 845 277 15 3 29 -6 51 -34 176 -216 585 -644 864
-902 63 -58 118 -109 121 -114 3 -4 219 206 480 466 261 261 539 534 619 608
351 323 802 716 1023 889 18 14 61 51 97 83 76 68 59 67 305 14z m-14694 -79
c120 -83 320 -220 381 -262 60 -42 384 -283 438 -326 25 -20 79 -63 120 -95
89 -70 398 -345 481 -427 33 -32 59 -64 59 -71 0 -26 -175 -562 -190 -582 -4
-5 -17 -39 -30 -75 -12 -36 -60 -144 -107 -240 -75 -154 -90 -179 -130 -208
-233 -174 -447 -305 -714 -437 -107 -52 -205 -101 -219 -108 -16 -8 -25 -21
-25 -36 0 -20 17 -33 105 -78 373 -193 807 -447 1237 -724 106 -68 209 -133
228 -144 19 -11 35 -27 35 -35 -1 -34 -166 -514 -216 -629 -13 -29 -24 -57
-24 -62 0 -8 -110 -274 -134 -324 -8 -16 -47 -100 -86 -185 -107 -231 -289
-574 -379 -715 -12 -18 -25 -20 -169 -22 -87 -2 -218 -7 -292 -13 -412 -31
-3340 -31 -3780 0 -85 6 -188 14 -228 16 l-73 6 3 411 3 412 69 130 c38 72 75
139 82 150 7 11 25 61 39 110 24 81 26 100 20 190 -9 141 -44 507 -56 585 -36
232 -81 494 -95 545 -20 80 -26 303 -14 545 10 211 38 834 45 1045 3 72 12
267 20 435 8 168 21 458 30 645 9 187 18 350 21 362 3 17 13 23 52 28 26 4 99
15 162 25 63 11 138 22 165 25 28 4 91 13 140 20 50 8 117 17 150 20 33 4 123
15 200 25 77 10 167 21 200 25 33 3 96 10 140 15 44 6 134 14 200 20 66 5 222
19 347 29 215 19 277 23 653 40 88 5 356 9 596 9 l435 2 105 -72z m7626 -78
c313 -12 417 -18 623 -35 96 -8 211 -17 255 -20 154 -11 350 -34 390 -46 86
-25 264 -258 372 -488 69 -146 166 -423 156 -446 -2 -5 -123 -70 -269 -144
-288 -146 -339 -182 -362 -257 -31 -105 -9 -146 166 -320 198 -197 591 -577
613 -592 17 -12 19 -30 19 -215 0 -111 -4 -274 -10 -362 -5 -88 -12 -200 -15
-250 -3 -49 -13 -148 -21 -220 -8 -71 -19 -170 -25 -218 -12 -112 -61 -416
-101 -617 -41 -208 -58 -241 -244 -472 -190 -236 -222 -315 -170 -422 15 -31
49 -75 77 -100 27 -24 49 -50 49 -58 0 -32 -153 -397 -172 -409 -5 -3 -159 -9
-341 -13 -183 -4 -352 -10 -377 -13 -98 -10 -2127 -14 -2280 -4 -85 6 -231 13
-324 17 l-168 7 5 31 c78 455 104 676 110 901 2 79 -1 96 -23 139 -14 27 -41
66 -60 86 -58 62 -103 69 -464 70 -171 0 -311 2 -313 4 -2 2 -15 59 -29 127
-23 114 -36 190 -78 479 -34 235 -73 661 -96 1050 -15 263 -33 1127 -28 1340
5 192 6 197 43 310 42 129 120 338 168 449 56 131 201 413 257 501 82 129 82
130 159 130 36 0 104 4 151 10 47 5 117 12 155 15 39 3 86 8 105 10 79 11 467
34 725 45 272 10 1110 11 1372 0z m-12613 -717 l69 -6 90 -186 c273 -563 529
-1329 677 -2021 17 -80 33 -154 36 -165 13 -52 67 -360 93 -535 31 -210 42
-296 66 -518 l15 -144 -30 -71 c-52 -123 -218 -382 -364 -567 -210 -266 -594
-638 -724 -702 -40 -19 -69 -21 -335 -29 -161 -4 -341 -14 -402 -21 -157 -18
-1612 -18 -1775 1 -63 7 -261 16 -440 20 -363 9 -354 8 -466 86 -123 85 -496
387 -669 540 -266 236 -664 623 -707 689 -16 22 -28 52 -28 65 0 36 58 356
100 551 11 52 25 117 30 143 26 131 72 302 91 340 12 23 52 74 88 112 37 39
112 122 167 185 217 251 247 297 252 389 2 36 -1 84 -7 106 -5 22 -20 83 -31
135 -12 52 -35 140 -51 196 -35 127 -51 225 -44 272 8 49 52 192 135 442 111
331 139 411 166 477 30 70 23 67 184 78 85 6 261 21 795 69 543 50 727 61
1270 80 162 6 1674 -3 1749 -11z m6262 -1966 c12 -152 18 -367 11 -367 -2 0
-60 31 -128 68 -68 38 -175 95 -236 127 -62 33 -113 62 -113 65 0 3 60 41 133
84 72 44 172 105 222 137 49 32 91 56 94 53 2 -2 10 -77 17 -167z m9081 -381
l82 -68 -57 -68 c-31 -37 -126 -149 -209 -249 -169 -202 -163 -199 -144 -49 6
40 22 192 36 338 15 146 29 280 31 298 l5 34 87 -84 c48 -46 124 -114 169
-152z"/>
<path d="M1610 6693 c0 -10 5 -97 10 -193 5 -96 12 -233 15 -305 10 -250 49
-731 75 -929 11 -81 20 -150 20 -153 0 -2 8 -2 18 1 9 3 62 7 117 11 55 3 174
12 265 20 234 21 250 22 670 55 585 45 790 61 885 66 61 3 113 9 117 12 23 24
36 768 20 1154 -6 139 -9 160 -27 177 -18 18 -43 21 -235 31 -118 5 -251 14
-295 19 -44 5 -163 12 -265 16 -102 3 -296 13 -432 21 -136 8 -407 14 -602 14
-332 0 -356 -1 -356 -17z m1040 -358 c118 -3 229 -8 245 -10 29 -4 432 -25
487 -25 l27 0 -6 -327 c-3 -181 -7 -329 -8 -331 -6 -7 -627 -65 -935 -87 -36
-2 -129 -9 -208 -16 -79 -6 -145 -9 -146 -7 -14 16 -91 792 -80 810 3 5 94 6
207 3 111 -3 299 -7 417 -10z"/>
<path d="M13729 6828 c-1 -18 -1 -36 -1 -39 1 -4 -7 -125 -18 -270 -11 -145
-24 -363 -30 -484 -6 -121 -15 -303 -20 -405 -5 -102 -10 -238 -10 -303 0
-108 2 -118 18 -113 9 2 67 12 127 21 111 16 143 22 180 29 11 2 65 11 120 21
246 44 526 108 1375 314 83 21 80 16 95 136 3 28 12 93 20 145 18 118 63 449
70 510 19 176 20 167 -6 173 -118 28 -581 118 -684 132 -22 3 -98 14 -170 25
-71 10 -202 29 -290 40 -88 12 -243 32 -345 46 -102 13 -235 31 -296 39 -142
19 -134 20 -135 -17z m599 -394 c45 -8 125 -19 177 -24 51 -5 192 -27 312 -49
120 -21 241 -42 268 -45 28 -4 86 -14 130 -24 l80 -17 -3 -40 c-8 -101 -55
-390 -64 -396 -5 -4 -51 -12 -102 -18 -50 -7 -163 -27 -251 -46 -88 -19 -272
-52 -410 -75 -137 -22 -290 -47 -339 -55 -49 -8 -96 -15 -104 -15 -13 0 -14
29 -8 213 7 204 31 546 42 596 5 23 6 23 97 16 51 -3 129 -13 175 -21z"/>
<path d="M15365 4615 c-11 -3 -204 -48 -300 -70 -33 -7 -154 -34 -270 -60
-115 -25 -257 -57 -315 -70 -58 -13 -150 -33 -205 -45 -55 -12 -138 -30 -185
-40 -189 -42 -319 -70 -383 -82 l-68 -13 1 -335 c0 -327 12 -730 29 -1000 5
-74 7 -139 4 -144 -7 -11 1138 0 1257 13 52 6 120 13 150 16 30 4 58 9 61 13
11 13 135 730 174 1012 10 69 19 134 21 145 10 56 51 384 64 510 6 61 13 120
16 133 3 18 0 22 -18 21 -13 0 -27 -2 -33 -4z m-405 -516 c0 -10 -42 -312 -96
-689 -8 -58 -23 -141 -32 -184 -17 -74 -20 -80 -48 -88 -41 -12 -788 -23 -782
-12 3 5 0 113 -7 239 -7 127 -14 309 -16 405 l-4 174 125 28 c69 15 168 34
220 42 52 8 183 31 291 50 263 47 349 55 349 35z"/>
<path d="M22260 6450 c-140 -4 -273 -10 -295 -14 -22 -3 -55 -8 -74 -10 -18
-3 -37 -8 -41 -13 -4 -4 -13 -48 -19 -98 -12 -93 -13 -108 -31 -285 -6 -58
-14 -260 -17 -450 -10 -631 40 -1473 122 -2055 3 -16 14 -95 25 -175 11 -80
25 -168 31 -196 l10 -51 112 -6 c143 -9 1783 -7 1902 2 l90 6 11 85 c96 719
138 1524 115 2190 -12 318 -30 578 -51 700 -5 30 -12 78 -15 105 -8 66 -43
247 -49 252 -18 19 -1294 27 -1826 13z m1372 -427 l127 -18 5 -50 c31 -311 46
-1081 27 -1435 -29 -567 -44 -724 -89 -935 l-17 -80 -495 -3 c-461 -2 -874 10
-893 27 -4 4 -14 74 -22 157 -8 82 -21 208 -29 279 -23 202 -45 454 -53 635
-9 189 -10 1242 -2 1340 l6 65 51 7 c125 18 330 25 777 27 409 1 499 -1 607
-16z"/>
<path d="M8911 5779 c-151 -4 -356 -15 -455 -25 -100 -9 -246 -19 -325 -23
l-144 -6 -23 -80 c-33 -115 -123 -555 -148 -725 -3 -19 -13 -80 -21 -135 -9
-55 -18 -111 -20 -125 -2 -14 -15 -97 -29 -185 -21 -137 -44 -308 -61 -460 -3
-22 -11 -94 -19 -160 -21 -168 -33 -312 -46 -515 -6 -96 -12 -189 -13 -207
l-3 -31 121 -7 c66 -4 656 -5 1312 -3 961 2 1195 6 1205 16 21 21 17 845 -5
1172 -31 452 -89 881 -168 1235 -40 181 -50 221 -61 248 l-10 27 -407 -2
c-223 0 -530 -5 -680 -9z m792 -426 c5 -8 10 -47 22 -153 3 -30 10 -80 15
-110 21 -123 60 -451 65 -545 4 -55 11 -154 16 -220 13 -158 24 -741 15 -788
l-7 -36 -157 -1 c-86 0 -299 -7 -472 -15 -435 -21 -908 -20 -1048 1 -59 9
-108 18 -109 19 -7 5 31 399 58 612 16 131 36 292 44 359 18 164 108 685 138
799 l13 50 205 8 c112 4 249 11 304 16 127 10 892 14 898 4z"/>
<path d="M9115 9070 c-338 -23 -726 -54 -965 -75 -36 -4 -177 -21 -315 -40
-137 -18 -275 -36 -305 -40 -66 -7 -468 -81 -522 -95 -70 -20 -123 -82 -139
-164 -16 -87 52 -402 161 -746 62 -196 117 -314 172 -371 l41 -42 101 7 c55 4
187 18 291 31 105 13 222 26 260 29 39 4 216 17 395 31 179 14 370 30 425 36
174 17 1059 30 1635 23 l556 -7 41 49 c75 91 84 118 153 474 53 278 57 301 75
490 15 148 15 169 1 208 -21 60 -73 131 -99 137 -50 11 -192 25 -352 35 -93 6
-201 16 -240 21 -82 13 -1218 20 -1370 9z m1170 -385 c176 -9 343 -16 370 -18
43 -2 50 -5 48 -22 -1 -11 -4 -51 -8 -90 -3 -38 -12 -110 -20 -160 -7 -49 -16
-112 -20 -139 -3 -28 -13 -81 -21 -119 -7 -37 -14 -71 -14 -74 0 -3 -174 -3
-387 1 -419 7 -924 -5 -1228 -29 -104 -8 -224 -15 -265 -15 -88 0 -433 -30
-750 -65 -124 -14 -287 -32 -362 -40 -75 -8 -143 -15 -151 -15 -15 0 -65 117
-87 200 -6 25 -25 87 -41 139 -47 148 -72 263 -58 271 10 6 101 21 219 35 19
2 89 11 155 19 445 56 883 93 1249 106 143 5 335 14 426 20 91 6 190 12 220
14 81 5 363 -3 725 -19z"/>
</g>
</svg>
